<svg width="404" height="85" viewBox="0 0 404 85" fill="none" xmlns="http://www.w3.org/2000/svg">
<path d="M181.768 51.424C181.864 51.424 181.912 51.52 181.912 51.712C181.912 51.904 181.864 52 181.768 52H176.392C176.136 52 175.672 52 175 52C174.36 52.032 173.448 51.232 172.264 49.6C171.08 47.936 169.944 46.416 168.856 45.04L161.512 35.776L159.928 37.312V48.112C159.928 49.072 160.024 49.792 160.216 50.272C160.408 50.72 160.776 51.024 161.32 51.184C161.896 51.344 162.792 51.424 164.008 51.424C164.104 51.424 164.152 51.52 164.152 51.712C164.152 51.904 164.104 52 164.008 52C163.048 52 162.28 51.984 161.704 51.952L158.344 51.904L155.08 51.952C154.504 51.984 153.704 52 152.68 52C152.616 52 152.584 51.904 152.584 51.712C152.584 51.52 152.616 51.424 152.68 51.424C153.896 51.424 154.776 51.344 155.32 51.184C155.896 51.024 156.28 50.72 156.472 50.272C156.696 49.792 156.808 49.072 156.808 48.112V25.888C156.808 24.928 156.712 24.224 156.52 23.776C156.328 23.328 155.944 23.024 155.368 22.864C154.824 22.672 153.944 22.576 152.728 22.576C152.664 22.576 152.632 22.48 152.632 22.288C152.632 22.096 152.664 22 152.728 22L155.128 22.048C156.472 22.112 157.544 22.144 158.344 22.144C159.272 22.144 160.408 22.112 161.752 22.048L164.008 22C164.104 22 164.152 22.096 164.152 22.288C164.152 22.48 164.104 22.576 164.008 22.576C162.824 22.576 161.944 22.672 161.368 22.864C160.824 23.056 160.44 23.392 160.216 23.872C160.024 24.32 159.928 25.024 159.928 25.984V36.112L170.2 25.888C171.256 24.832 171.784 24.048 171.784 23.536C171.784 22.896 170.84 22.576 168.952 22.576C168.888 22.576 168.856 22.48 168.856 22.288C168.856 22.096 168.888 22 168.952 22L171.016 22.048C172.296 22.112 173.464 22.144 174.52 22.144C175.576 22.144 176.68 22.112 177.832 22.048L179.608 22C179.704 22 179.752 22.096 179.752 22.288C179.752 22.48 179.704 22.576 179.608 22.576C178.296 22.576 176.904 22.864 175.432 23.44C173.96 24.016 172.584 24.928 171.304 26.176L163.72 33.616L170.632 42.448C172.968 45.488 174.744 47.632 175.96 48.88C177.208 50.128 178.168 50.864 178.84 51.088C179.512 51.312 180.488 51.424 181.768 51.424ZM215.675 51.424C215.803 51.456 215.851 51.568 215.819 51.76C215.819 51.92 215.771 52 215.675 52H210.491C209.051 52 206.859 50.864 203.915 48.592C201.323 51.248 198.091 52.576 194.219 52.576C192.235 52.576 190.571 52.24 189.227 51.568C187.915 50.896 186.923 50.016 186.251 48.928C185.611 47.84 185.291 46.672 185.291 45.424C185.291 43.6 185.851 42.016 186.971 40.672C188.123 39.296 189.771 37.824 191.915 36.256C191.339 35.392 190.875 34.592 190.523 33.856C189.595 31.808 189.131 30.064 189.131 28.624C189.131 27.248 189.467 25.984 190.139 24.832C190.811 23.648 191.755 22.72 192.971 22.048C194.187 21.344 195.563 20.992 197.099 20.992C198.635 20.992 199.947 21.36 201.035 22.096C202.155 22.832 202.715 24.048 202.715 25.744C202.715 26.992 202.395 28.112 201.755 29.104C201.147 30.096 200.379 30.976 199.451 31.744C198.555 32.48 197.339 33.36 195.803 34.384C195.579 34.512 195.243 34.736 194.795 35.056C197.003 38.608 200.411 42.176 205.019 45.76C206.139 43.808 206.699 41.648 206.699 39.28C206.699 38.128 206.459 37.264 205.979 36.688C205.531 36.112 204.635 35.824 203.291 35.824C203.195 35.824 203.131 35.728 203.099 35.536C203.099 35.344 203.163 35.248 203.291 35.248L213.323 35.2C213.451 35.2 213.515 35.296 213.515 35.488C213.515 35.68 213.451 35.776 213.323 35.776C212.235 35.776 211.419 35.888 210.875 36.112C210.331 36.304 209.947 36.576 209.723 36.928C209.499 37.28 209.275 37.84 209.051 38.608C208.123 41.776 207.019 44.336 205.739 46.288C207.627 47.664 209.451 48.8 211.211 49.696C212.971 50.592 214.459 51.168 215.675 51.424ZM191.915 26.56C191.915 29.056 192.747 31.696 194.411 34.48C196.171 33.168 197.515 31.904 198.443 30.688C199.403 29.44 199.883 28.048 199.883 26.512C199.883 25.104 199.499 24 198.731 23.2C197.995 22.4 196.987 22 195.707 22C193.179 22 191.915 23.52 191.915 26.56ZM196.379 51.136C199.067 51.136 201.371 50.128 203.291 48.112L202.427 47.392C200.507 45.888 198.651 44.224 196.859 42.4C195.099 40.544 193.579 38.704 192.299 36.88C191.051 37.872 190.075 38.928 189.371 40.048C188.699 41.136 188.363 42.368 188.363 43.744C188.363 45.088 188.699 46.336 189.371 47.488C190.075 48.608 191.035 49.504 192.251 50.176C193.499 50.816 194.875 51.136 196.379 51.136ZM235.272 52.576C231.752 52.576 228.68 51.872 226.056 50.464C223.464 49.056 221.48 47.152 220.104 44.752C218.728 42.352 218.04 39.712 218.04 36.832C218.04 33.728 218.824 31.024 220.392 28.72C221.96 26.384 224.104 24.592 226.824 23.344C229.576 22.096 232.648 21.472 236.04 21.472C237.736 21.472 239.336 21.632 240.84 21.952C242.344 22.272 243.592 22.736 244.584 23.344C244.84 23.472 244.984 23.584 245.016 23.68C245.048 23.776 245.08 24.016 245.112 24.4L245.688 30.064C245.688 30.16 245.592 30.224 245.4 30.256C245.24 30.288 245.144 30.24 245.112 30.112C243.64 24.864 240.312 22.24 235.128 22.24C232.6 22.24 230.312 22.816 228.264 23.968C226.248 25.088 224.648 26.704 223.464 28.816C222.312 30.896 221.736 33.328 221.736 36.112C221.736 38.832 222.296 41.392 223.416 43.792C224.536 46.192 226.216 48.144 228.456 49.648C230.696 51.12 233.4 51.856 236.568 51.856C238.84 51.856 240.44 51.424 241.368 50.56C242.296 49.664 242.76 48.144 242.76 46C242.76 44.336 242.648 43.184 242.424 42.544C242.232 41.872 241.767 41.424 241.031 41.2C240.328 40.976 239.08 40.864 237.288 40.864C237.096 40.864 237 40.736 237 40.48C237 40.384 237.016 40.304 237.048 40.24C237.112 40.144 237.176 40.096 237.24 40.096C239.736 40.256 241.752 40.336 243.288 40.336C244.76 40.336 246.344 40.288 248.04 40.192C248.104 40.192 248.152 40.24 248.184 40.336C248.248 40.4 248.28 40.464 248.28 40.528C248.28 40.752 248.2 40.864 248.04 40.864C247.24 40.832 246.68 40.944 246.36 41.2C246.072 41.424 245.88 41.904 245.784 42.64C245.688 43.344 245.64 44.624 245.64 46.48C245.64 47.92 245.688 48.944 245.784 49.552C245.912 50.16 245.976 50.544 245.976 50.704C245.976 50.896 245.944 51.024 245.88 51.088C245.816 51.152 245.672 51.216 245.448 51.28C241.48 52.144 238.088 52.576 235.272 52.576Z" fill="#DB9225"/>
<rect x="112.5" y="0.5" width="173" height="73" rx="18.5" stroke="#DB9225"/>
<rect x="137" y="58" width="130" height="27" fill="#2D2D2D"/>
<path d="M154.316 74.2358H151.682V73.5693H154.316C154.867 73.5693 155.313 73.4805 155.656 73.3027C156.003 73.1208 156.255 72.8753 156.411 72.5664C156.572 72.2575 156.652 71.9105 156.652 71.5254C156.652 71.1488 156.572 70.8018 156.411 70.4844C156.255 70.167 156.003 69.9131 155.656 69.7227C155.313 69.528 154.867 69.4307 154.316 69.4307H151.955V78H151.174V68.7578H154.316C154.993 68.7578 155.563 68.8742 156.024 69.1069C156.489 69.3397 156.841 69.6634 157.078 70.0781C157.315 70.4928 157.433 70.971 157.433 71.5127C157.433 72.0798 157.315 72.5685 157.078 72.979C156.841 73.3853 156.492 73.6963 156.03 73.9121C155.569 74.1279 154.998 74.2358 154.316 74.2358ZM167.063 69.3101L163.864 78H163.052L166.543 68.7578H167.108L167.063 69.3101ZM169.97 78L166.765 69.3101L166.72 68.7578H167.285L170.783 78H169.97ZM169.399 74.7373V75.4102H164.492V74.7373H169.399ZM177.855 68.7578H180.857C181.496 68.7578 182.051 68.8615 182.521 69.0688C182.99 69.2762 183.352 69.583 183.606 69.9893C183.864 70.3913 183.993 70.8864 183.993 71.4746C183.993 71.9105 183.9 72.3062 183.714 72.6616C183.532 73.0171 183.28 73.3154 182.959 73.5566C182.637 73.7936 182.265 73.9565 181.841 74.0454L181.568 74.147H178.363L178.35 73.4805H181.035C181.518 73.4805 181.92 73.3874 182.241 73.2012C182.563 73.015 182.804 72.7695 182.965 72.4648C183.13 72.1559 183.212 71.8258 183.212 71.4746C183.212 71.0557 183.121 70.6938 182.94 70.3892C182.762 70.0802 182.497 69.8433 182.146 69.6782C181.795 69.5132 181.365 69.4307 180.857 69.4307H178.636V78H177.855V68.7578ZM183.562 78L181.169 73.8677L182.006 73.8613L184.393 77.9175V78H183.562ZM194.449 68.7578V78H193.674V68.7578H194.449ZM197.616 68.7578V69.4307H190.513V68.7578H197.616ZM211.721 68.7578V78H210.934L205.621 70.1035V78H204.84V68.7578H205.621L210.947 76.6543V68.7578H211.721ZM225.547 77.3335V78H220.349V77.3335H225.547ZM220.583 68.7578V78H219.803V68.7578H220.583ZM224.9 72.9028V73.5693H220.349V72.9028H224.9ZM225.516 68.7578V69.4307H220.349V68.7578H225.516ZM232.905 68.7578H235.907C236.546 68.7578 237.101 68.8615 237.57 69.0688C238.04 69.2762 238.402 69.583 238.656 69.9893C238.914 70.3913 239.043 70.8864 239.043 71.4746C239.043 71.9105 238.95 72.3062 238.764 72.6616C238.582 73.0171 238.33 73.3154 238.008 73.5566C237.687 73.7936 237.314 73.9565 236.891 74.0454L236.618 74.147H233.413L233.4 73.4805H236.085C236.568 73.4805 236.97 73.3874 237.291 73.2012C237.613 73.015 237.854 72.7695 238.015 72.4648C238.18 72.1559 238.262 71.8258 238.262 71.4746C238.262 71.0557 238.171 70.6938 237.989 70.3892C237.812 70.0802 237.547 69.8433 237.196 69.6782C236.845 69.5132 236.415 69.4307 235.907 69.4307H233.686V78H232.905V68.7578ZM238.612 78L236.218 73.8677L237.056 73.8613L239.443 77.9175V78H238.612ZM252.139 75.7275C252.139 75.4736 252.097 75.2472 252.012 75.0483C251.928 74.8494 251.788 74.6717 251.593 74.5151C251.403 74.3543 251.145 74.2062 250.819 74.0708C250.497 73.9312 250.095 73.7936 249.613 73.6582C249.151 73.527 248.735 73.3831 248.362 73.2266C247.99 73.07 247.67 72.8901 247.404 72.687C247.141 72.4839 246.94 72.2469 246.801 71.9761C246.661 71.701 246.591 71.3815 246.591 71.0176C246.591 70.6621 246.667 70.3384 246.82 70.0464C246.972 69.7544 247.186 69.5026 247.461 69.291C247.74 69.0794 248.068 68.9165 248.445 68.8022C248.826 68.688 249.242 68.6309 249.695 68.6309C250.343 68.6309 250.901 68.7536 251.371 68.999C251.845 69.2445 252.211 69.5767 252.469 69.9956C252.732 70.4103 252.863 70.8758 252.863 71.3921H252.082C252.082 70.9901 251.987 70.6325 251.796 70.3193C251.61 70.002 251.339 69.7544 250.984 69.5767C250.633 69.3947 250.203 69.3037 249.695 69.3037C249.187 69.3037 248.76 69.382 248.413 69.5386C248.07 69.6909 247.81 69.8962 247.632 70.1543C247.459 70.4082 247.372 70.6917 247.372 71.0049C247.372 71.2249 247.414 71.4281 247.499 71.6143C247.584 71.7962 247.721 71.9676 247.912 72.1284C248.106 72.285 248.362 72.4331 248.68 72.5728C248.997 72.7082 249.388 72.8372 249.854 72.96C250.345 73.0954 250.781 73.2456 251.162 73.4106C251.542 73.5757 251.864 73.7661 252.126 73.9819C252.389 74.1935 252.588 74.4411 252.723 74.7246C252.859 75.0081 252.926 75.3382 252.926 75.7148C252.926 76.0915 252.846 76.43 252.685 76.7305C252.528 77.0267 252.306 77.2785 252.019 77.4858C251.735 77.6932 251.399 77.8519 251.009 77.9619C250.624 78.0719 250.203 78.127 249.746 78.127C249.336 78.127 248.927 78.0741 248.521 77.9683C248.115 77.8625 247.742 77.6995 247.404 77.4795C247.069 77.2552 246.801 76.9674 246.598 76.6162C246.399 76.265 246.299 75.846 246.299 75.3594H247.074C247.074 75.7487 247.152 76.0767 247.309 76.3433C247.465 76.6099 247.672 76.8257 247.931 76.9907C248.193 77.1558 248.481 77.2764 248.794 77.3525C249.111 77.4245 249.429 77.4604 249.746 77.4604C250.233 77.4604 250.654 77.3885 251.009 77.2446C251.369 77.1007 251.646 76.8997 251.841 76.6416C252.04 76.3792 252.139 76.0745 252.139 75.7275Z" fill="white"/>
<path d="M5.199 33.731L8.371 41.908C8.501 42.2373 8.64833 42.4583 8.813 42.571C8.97767 42.675 9.12933 42.7313 9.268 42.74V43C9.09467 42.9827 8.88233 42.974 8.631 42.974C8.37967 42.9653 8.12833 42.961 7.877 42.961C7.539 42.961 7.22267 42.9653 6.928 42.974C6.63333 42.974 6.395 42.9827 6.213 43V42.74C6.655 42.7227 6.93667 42.649 7.058 42.519C7.17933 42.3803 7.15333 42.09 6.98 41.648L4.562 35.187L4.77 35.018L2.508 40.894C2.36933 41.2407 2.287 41.5353 2.261 41.778C2.235 42.012 2.25667 42.1983 2.326 42.337C2.404 42.4757 2.52967 42.5753 2.703 42.636C2.885 42.6967 3.11033 42.7313 3.379 42.74V43C3.13633 42.9827 2.88067 42.974 2.612 42.974C2.352 42.9653 2.10933 42.961 1.884 42.961C1.66733 42.961 1.481 42.9653 1.325 42.974C1.17767 42.974 1.039 42.9827 0.909 43V42.74C1.08233 42.6967 1.26 42.597 1.442 42.441C1.624 42.2763 1.78867 41.999 1.936 41.609L4.991 33.731C5.02567 33.731 5.06033 33.731 5.095 33.731C5.12967 33.731 5.16433 33.731 5.199 33.731ZM6.785 39.256V39.516H2.911L3.041 39.256H6.785ZM16.7155 33.796V34.056C16.4208 34.0647 16.1955 34.0993 16.0395 34.16C15.8921 34.212 15.7925 34.316 15.7405 34.472C15.6885 34.6193 15.6625 34.8533 15.6625 35.174V41.622C15.6625 41.934 15.6885 42.1723 15.7405 42.337C15.7925 42.493 15.8921 42.6013 16.0395 42.662C16.1955 42.714 16.4208 42.74 16.7155 42.74H17.1185C17.0838 43.0433 17.0578 43.338 17.0405 43.624C17.0318 43.91 17.0275 44.1267 17.0275 44.274C17.0275 44.43 17.0318 44.5773 17.0405 44.716C17.0491 44.8633 17.0578 44.9847 17.0665 45.08H16.7675C16.7155 44.5687 16.6418 44.1613 16.5465 43.858C16.4511 43.5547 16.2865 43.3337 16.0525 43.195C15.8271 43.065 15.4848 43 15.0255 43H11.3205C10.8611 43 10.5145 43.065 10.2805 43.195C10.0551 43.3337 9.89481 43.5547 9.79948 43.858C9.71281 44.1613 9.63914 44.5687 9.57848 45.08H9.27948C9.29681 44.9847 9.30548 44.8633 9.30548 44.716C9.31414 44.5773 9.31848 44.43 9.31848 44.274C9.31848 44.1267 9.30981 43.91 9.29248 43.624C9.28381 43.338 9.26214 43.0433 9.22748 42.74H13.4005C13.6951 42.74 13.9161 42.714 14.0635 42.662C14.2195 42.6013 14.3235 42.493 14.3755 42.337C14.4275 42.1723 14.4535 41.934 14.4535 41.622V35.174C14.4535 34.8533 14.4275 34.615 14.3755 34.459C14.3235 34.303 14.2195 34.199 14.0635 34.147C13.9161 34.0863 13.6951 34.056 13.4005 34.056H13.2315C12.9281 34.056 12.7071 34.0863 12.5685 34.147C12.4298 34.199 12.3388 34.3073 12.2955 34.472C12.2521 34.628 12.2131 34.862 12.1785 35.174C12.1351 35.668 12.0918 36.201 12.0485 36.773C12.0138 37.345 11.9661 37.9257 11.9055 38.515C11.8448 39.0957 11.7581 39.6547 11.6455 40.192C11.5415 40.7207 11.3985 41.1973 11.2165 41.622C11.0345 42.038 10.8005 42.3717 10.5145 42.623C10.2285 42.8657 9.87748 42.987 9.46148 42.987V42.74C9.86014 42.74 10.1938 42.5927 10.4625 42.298C10.7311 41.9947 10.9478 41.5873 11.1125 41.076C11.2858 40.5647 11.4201 39.984 11.5155 39.334C11.6108 38.6753 11.6845 37.9907 11.7365 37.28C11.7885 36.5693 11.8361 35.8673 11.8795 35.174C11.8968 34.8707 11.8795 34.641 11.8275 34.485C11.7841 34.329 11.6845 34.2207 11.5285 34.16C11.3725 34.0993 11.1385 34.0647 10.8265 34.056V33.796C11.0085 33.8047 11.2251 33.8133 11.4765 33.822C11.7278 33.8307 11.9575 33.835 12.1655 33.835C12.3648 33.835 12.5555 33.8307 12.7375 33.822C12.9281 33.8047 13.1188 33.796 13.3095 33.796C13.6388 33.796 13.9378 33.8047 14.2065 33.822C14.4751 33.8307 14.7958 33.835 15.1685 33.835C15.3418 33.835 15.5238 33.835 15.7145 33.835C15.9051 33.8263 16.0871 33.822 16.2605 33.822C16.4425 33.8133 16.5941 33.8047 16.7155 33.796ZM17.9103 33.796C18.0923 33.8047 18.3306 33.8133 18.6253 33.822C18.9199 33.8307 19.2103 33.835 19.4963 33.835C19.9036 33.835 20.2936 33.8307 20.6663 33.822C21.0389 33.8133 21.3033 33.809 21.4593 33.809C22.3693 33.809 23.0539 33.9997 23.5133 34.381C23.9726 34.7623 24.2023 35.252 24.2023 35.85C24.2023 36.1533 24.1373 36.4523 24.0073 36.747C23.8859 37.033 23.6779 37.2973 23.3833 37.54C23.0973 37.774 22.7116 37.9647 22.2263 38.112V38.138C22.9109 38.2247 23.4439 38.3893 23.8253 38.632C24.2153 38.866 24.4883 39.1433 24.6443 39.464C24.8003 39.7847 24.8783 40.1227 24.8783 40.478C24.8783 40.972 24.7526 41.4097 24.5013 41.791C24.2586 42.1637 23.9033 42.4583 23.4353 42.675C22.9673 42.8917 22.4083 43 21.7583 43C21.5676 43 21.2816 42.9957 20.9003 42.987C20.5189 42.9697 20.0596 42.961 19.5223 42.961C19.2189 42.961 18.9199 42.9653 18.6253 42.974C18.3306 42.974 18.0923 42.9827 17.9103 43V42.74C18.2049 42.7227 18.4259 42.688 18.5733 42.636C18.7293 42.584 18.8333 42.48 18.8853 42.324C18.9373 42.168 18.9633 41.934 18.9633 41.622V35.174C18.9633 34.8533 18.9373 34.6193 18.8853 34.472C18.8333 34.316 18.7293 34.212 18.5733 34.16C18.4259 34.0993 18.2049 34.0647 17.9103 34.056V33.796ZM21.1343 34.056C20.7356 34.056 20.4756 34.1297 20.3543 34.277C20.2329 34.4243 20.1723 34.7233 20.1723 35.174V41.622C20.1723 41.9253 20.1983 42.155 20.2503 42.311C20.3023 42.467 20.3976 42.571 20.5363 42.623C20.6749 42.675 20.8786 42.701 21.1473 42.701C21.9966 42.701 22.6119 42.506 22.9933 42.116C23.3833 41.7173 23.5783 41.154 23.5783 40.426C23.5783 39.7587 23.3963 39.243 23.0323 38.879C22.6769 38.515 22.0876 38.333 21.2643 38.333H19.9253C19.9253 38.333 19.9253 38.2983 19.9253 38.229C19.9253 38.151 19.9253 38.112 19.9253 38.112H21.0433C21.5546 38.112 21.9489 38.0167 22.2263 37.826C22.5036 37.6267 22.6943 37.3667 22.7983 37.046C22.9023 36.7167 22.9543 36.3657 22.9543 35.993C22.9543 35.3517 22.8113 34.8707 22.5253 34.55C22.2479 34.2207 21.7843 34.056 21.1343 34.056ZM30.2869 33.614C31.1102 33.614 31.8295 33.8003 32.4449 34.173C33.0689 34.5457 33.5499 35.083 33.8879 35.785C34.2345 36.4783 34.4079 37.3233 34.4079 38.32C34.4079 39.2907 34.2302 40.14 33.8749 40.868C33.5282 41.596 33.0429 42.1637 32.4189 42.571C31.7949 42.9783 31.0799 43.182 30.2739 43.182C29.4505 43.182 28.7269 42.9957 28.1029 42.623C27.4875 42.2503 27.0065 41.713 26.6599 41.011C26.3219 40.309 26.1529 39.464 26.1529 38.476C26.1529 37.5053 26.3305 36.656 26.6859 35.928C27.0412 35.2 27.5265 34.6323 28.1419 34.225C28.7659 33.8177 29.4809 33.614 30.2869 33.614ZM30.2349 33.848C29.6715 33.848 29.1819 34.043 28.7659 34.433C28.3499 34.823 28.0249 35.3603 27.7909 36.045C27.5655 36.7297 27.4529 37.5227 27.4529 38.424C27.4529 39.3427 27.5785 40.1443 27.8299 40.829C28.0899 41.505 28.4365 42.0293 28.8699 42.402C29.3119 42.766 29.7972 42.948 30.3259 42.948C30.8892 42.948 31.3789 42.753 31.7949 42.363C32.2109 41.973 32.5315 41.4357 32.7569 40.751C32.9909 40.0577 33.1079 39.2647 33.1079 38.372C33.1079 37.4447 32.9779 36.643 32.7179 35.967C32.4665 35.291 32.1242 34.771 31.6909 34.407C31.2575 34.0343 30.7722 33.848 30.2349 33.848ZM38.859 33.796V34.056C38.5644 34.0647 38.339 34.0993 38.183 34.16C38.0357 34.212 37.936 34.316 37.884 34.472C37.832 34.6193 37.806 34.8533 37.806 35.174V41.622C37.806 41.934 37.832 42.168 37.884 42.324C37.936 42.48 38.0357 42.584 38.183 42.636C38.339 42.688 38.5644 42.7227 38.859 42.74V43C38.6597 42.9827 38.4084 42.974 38.105 42.974C37.8104 42.9653 37.5114 42.961 37.208 42.961C36.87 42.961 36.5537 42.9653 36.259 42.974C35.9644 42.974 35.726 42.9827 35.544 43V42.74C35.8387 42.7227 36.0597 42.688 36.207 42.636C36.363 42.584 36.467 42.48 36.519 42.324C36.571 42.168 36.597 41.934 36.597 41.622V35.174C36.597 34.8533 36.571 34.6193 36.519 34.472C36.467 34.316 36.363 34.212 36.207 34.16C36.0597 34.0993 35.8387 34.0647 35.544 34.056V33.796C35.726 33.8047 35.9644 33.8133 36.259 33.822C36.5537 33.8307 36.87 33.835 37.208 33.835C37.5114 33.835 37.8104 33.8307 38.105 33.822C38.4084 33.8133 38.6597 33.8047 38.859 33.796ZM38.716 38.112C39.1754 38.112 39.6044 38.1597 40.003 38.255C40.4104 38.3503 40.757 38.5323 41.043 38.801C41.329 39.0697 41.5327 39.4683 41.654 39.997L42.031 41.635C42.1264 42.0337 42.213 42.3153 42.291 42.48C42.369 42.636 42.5034 42.7097 42.694 42.701C42.8414 42.6923 42.9627 42.6447 43.058 42.558C43.162 42.4713 43.2704 42.3543 43.383 42.207L43.578 42.35C43.4134 42.5927 43.2314 42.792 43.032 42.948C42.8327 43.104 42.551 43.182 42.187 43.182C41.8837 43.182 41.6064 43.0953 41.355 42.922C41.1124 42.74 40.926 42.3587 40.796 41.778L40.432 40.166C40.354 39.802 40.263 39.4857 40.159 39.217C40.055 38.9483 39.8904 38.7403 39.665 38.593C39.4397 38.437 39.106 38.359 38.664 38.359H37.559V38.112H38.716ZM37.806 38.359V38.112C38.17 38.1033 38.4734 38.0297 38.716 37.891C38.9674 37.7437 39.1754 37.566 39.34 37.358L40.588 35.772C40.874 35.408 41.069 35.1003 41.173 34.849C41.277 34.5977 41.2727 34.407 41.16 34.277C41.0474 34.1383 40.809 34.0647 40.445 34.056V33.796C40.6097 33.8047 40.7787 33.8133 40.952 33.822C41.1254 33.822 41.2944 33.8263 41.459 33.835C41.6324 33.835 41.7927 33.835 41.94 33.835C42.1654 33.835 42.3734 33.8307 42.564 33.822C42.7547 33.8133 42.915 33.8047 43.045 33.796V34.056C42.7764 34.0907 42.5164 34.1817 42.265 34.329C42.0137 34.4677 41.7624 34.693 41.511 35.005L38.872 38.359H37.806ZM48.0076 33.731L51.1796 41.908C51.3096 42.2373 51.4569 42.4583 51.6216 42.571C51.7863 42.675 51.9379 42.7313 52.0766 42.74V43C51.9033 42.9827 51.6909 42.974 51.4396 42.974C51.1883 42.9653 50.9369 42.961 50.6856 42.961C50.3476 42.961 50.0313 42.9653 49.7366 42.974C49.4419 42.974 49.2036 42.9827 49.0216 43V42.74C49.4636 42.7227 49.7453 42.649 49.8666 42.519C49.9879 42.3803 49.9619 42.09 49.7886 41.648L47.3706 35.187L47.5786 35.018L45.3166 40.894C45.1779 41.2407 45.0956 41.5353 45.0696 41.778C45.0436 42.012 45.0653 42.1983 45.1346 42.337C45.2126 42.4757 45.3383 42.5753 45.5116 42.636C45.6936 42.6967 45.9189 42.7313 46.1876 42.74V43C45.9449 42.9827 45.6893 42.974 45.4206 42.974C45.1606 42.9653 44.9179 42.961 44.6926 42.961C44.4759 42.961 44.2896 42.9653 44.1336 42.974C43.9863 42.974 43.8476 42.9827 43.7176 43V42.74C43.8909 42.6967 44.0686 42.597 44.2506 42.441C44.4326 42.2763 44.5973 41.999 44.7446 41.609L47.7996 33.731C47.8343 33.731 47.8689 33.731 47.9036 33.731C47.9383 33.731 47.9729 33.731 48.0076 33.731ZM49.5936 39.256V39.516H45.7196L45.8496 39.256H49.5936ZM59.0837 33.796C59.049 34.1253 59.023 34.446 59.0057 34.758C58.997 35.0613 58.9927 35.2953 58.9927 35.46C58.9927 35.668 58.997 35.863 59.0057 36.045C59.0144 36.227 59.023 36.3873 59.0317 36.526H58.7327C58.672 35.9193 58.5897 35.4427 58.4857 35.096C58.3817 34.7407 58.1997 34.485 57.9397 34.329C57.6797 34.173 57.2767 34.095 56.7307 34.095H56.0287V41.492C56.0287 41.8387 56.059 42.0987 56.1197 42.272C56.189 42.4453 56.319 42.5623 56.5097 42.623C56.7004 42.6837 56.9777 42.7227 57.3417 42.74V43C57.1164 42.9827 56.8304 42.974 56.4837 42.974C56.137 42.9653 55.786 42.961 55.4307 42.961C55.0407 42.961 54.6724 42.9653 54.3257 42.974C53.9877 42.974 53.7147 42.9827 53.5067 43V42.74C53.8707 42.7227 54.148 42.6837 54.3387 42.623C54.5294 42.5623 54.655 42.4453 54.7157 42.272C54.785 42.0987 54.8197 41.8387 54.8197 41.492V34.095H54.1177C53.5804 34.095 53.1774 34.173 52.9087 34.329C52.6487 34.485 52.4667 34.7407 52.3627 35.096C52.2587 35.4427 52.1764 35.9193 52.1157 36.526H51.8167C51.834 36.3873 51.8427 36.227 51.8427 36.045C51.8514 35.863 51.8557 35.668 51.8557 35.46C51.8557 35.2953 51.847 35.0613 51.8297 34.758C51.821 34.446 51.7994 34.1253 51.7647 33.796C52.1287 33.8047 52.523 33.8133 52.9477 33.822C53.381 33.8307 53.8144 33.835 54.2477 33.835C54.681 33.835 55.0754 33.835 55.4307 33.835C55.786 33.835 56.176 33.835 56.6007 33.835C57.034 33.835 57.4674 33.8307 57.9007 33.822C58.334 33.8133 58.7284 33.8047 59.0837 33.796ZM64.2849 33.614C64.8569 33.614 65.3249 33.7007 65.6889 33.874C66.0616 34.0387 66.3909 34.2337 66.6769 34.459C66.8502 34.589 66.9802 34.6063 67.0669 34.511C67.1622 34.407 67.2272 34.1687 67.2619 33.796H67.5609C67.5436 34.1167 67.5306 34.5067 67.5219 34.966C67.5132 35.4253 67.5089 36.032 67.5089 36.786H67.2099C67.1492 36.4133 67.0929 36.1187 67.0409 35.902C66.9889 35.6767 66.9239 35.486 66.8459 35.33C66.7766 35.174 66.6812 35.018 66.5599 34.862C66.2912 34.5067 65.9532 34.251 65.5459 34.095C65.1386 33.9303 64.7096 33.848 64.2589 33.848C63.8342 33.848 63.4486 33.9563 63.1019 34.173C62.7639 34.381 62.4692 34.6843 62.2179 35.083C61.9752 35.4817 61.7846 35.9627 61.6459 36.526C61.5159 37.0893 61.4509 37.722 61.4509 38.424C61.4509 39.152 61.5246 39.7977 61.6719 40.361C61.8192 40.9157 62.0229 41.3837 62.2829 41.765C62.5516 42.1463 62.8636 42.4367 63.2189 42.636C63.5829 42.8267 63.9729 42.922 64.3889 42.922C64.7789 42.922 65.1862 42.844 65.6109 42.688C66.0356 42.532 66.3692 42.2807 66.6119 41.934C66.8026 41.6827 66.9326 41.4097 67.0019 41.115C67.0799 40.8203 67.1492 40.4087 67.2099 39.88H67.5089C67.5089 40.6687 67.5132 41.3057 67.5219 41.791C67.5306 42.2677 67.5436 42.6707 67.5609 43H67.2619C67.2272 42.6273 67.1666 42.3933 67.0799 42.298C67.0019 42.2027 66.8676 42.2157 66.6769 42.337C66.3562 42.5623 66.0139 42.7617 65.6499 42.935C65.2946 43.0997 64.8352 43.182 64.2719 43.182C63.4486 43.182 62.7249 42.9957 62.1009 42.623C61.4856 42.2503 61.0046 41.713 60.6579 41.011C60.3199 40.309 60.1509 39.464 60.1509 38.476C60.1509 37.5053 60.3286 36.656 60.6839 35.928C61.0392 35.2 61.5246 34.6323 62.1399 34.225C62.7639 33.8177 63.4789 33.614 64.2849 33.614ZM72.2731 33.796V34.056C71.9784 34.0647 71.7531 34.0993 71.5971 34.16C71.4498 34.212 71.3501 34.316 71.2981 34.472C71.2461 34.6193 71.2201 34.8533 71.2201 35.174V41.622C71.2201 41.934 71.2461 42.168 71.2981 42.324C71.3501 42.48 71.4498 42.584 71.5971 42.636C71.7531 42.688 71.9784 42.7227 72.2731 42.74V43C72.0738 42.9827 71.8224 42.974 71.5191 42.974C71.2244 42.9653 70.9254 42.961 70.6221 42.961C70.2841 42.961 69.9678 42.9653 69.6731 42.974C69.3784 42.974 69.1401 42.9827 68.9581 43V42.74C69.2528 42.7227 69.4738 42.688 69.6211 42.636C69.7771 42.584 69.8811 42.48 69.9331 42.324C69.9851 42.168 70.0111 41.934 70.0111 41.622V35.174C70.0111 34.8533 69.9851 34.6193 69.9331 34.472C69.8811 34.316 69.7771 34.212 69.6211 34.16C69.4738 34.0993 69.2528 34.0647 68.9581 34.056V33.796C69.1401 33.8047 69.3784 33.8133 69.6731 33.822C69.9678 33.8307 70.2841 33.835 70.6221 33.835C70.9254 33.835 71.2244 33.8307 71.5191 33.822C71.8224 33.8133 72.0738 33.8047 72.2731 33.796ZM72.1301 38.112C72.5894 38.112 73.0184 38.1597 73.4171 38.255C73.8244 38.3503 74.1711 38.5323 74.4571 38.801C74.7431 39.0697 74.9468 39.4683 75.0681 39.997L75.4451 41.635C75.5404 42.0337 75.6271 42.3153 75.7051 42.48C75.7831 42.636 75.9174 42.7097 76.1081 42.701C76.2554 42.6923 76.3768 42.6447 76.4721 42.558C76.5761 42.4713 76.6844 42.3543 76.7971 42.207L76.9921 42.35C76.8274 42.5927 76.6454 42.792 76.4461 42.948C76.2468 43.104 75.9651 43.182 75.6011 43.182C75.2978 43.182 75.0204 43.0953 74.7691 42.922C74.5264 42.74 74.3401 42.3587 74.2101 41.778L73.8461 40.166C73.7681 39.802 73.6771 39.4857 73.5731 39.217C73.4691 38.9483 73.3044 38.7403 73.0791 38.593C72.8538 38.437 72.5201 38.359 72.0781 38.359H70.9731V38.112H72.1301ZM71.2201 38.359V38.112C71.5841 38.1033 71.8874 38.0297 72.1301 37.891C72.3814 37.7437 72.5894 37.566 72.7541 37.358L74.0021 35.772C74.2881 35.408 74.4831 35.1003 74.5871 34.849C74.6911 34.5977 74.6868 34.407 74.5741 34.277C74.4614 34.1383 74.2231 34.0647 73.8591 34.056V33.796C74.0238 33.8047 74.1928 33.8133 74.3661 33.822C74.5394 33.822 74.7084 33.8263 74.8731 33.835C75.0464 33.835 75.2068 33.835 75.3541 33.835C75.5794 33.835 75.7874 33.8307 75.9781 33.822C76.1688 33.8133 76.3291 33.8047 76.4591 33.796V34.056C76.1904 34.0907 75.9304 34.1817 75.6791 34.329C75.4278 34.4677 75.1764 34.693 74.9251 35.005L72.2861 38.359H71.2201ZM81.7283 33.614C82.5516 33.614 83.2709 33.8003 83.8863 34.173C84.5103 34.5457 84.9913 35.083 85.3293 35.785C85.6759 36.4783 85.8493 37.3233 85.8493 38.32C85.8493 39.2907 85.6716 40.14 85.3163 40.868C84.9696 41.596 84.4843 42.1637 83.8603 42.571C83.2363 42.9783 82.5213 43.182 81.7153 43.182C80.8919 43.182 80.1683 42.9957 79.5443 42.623C78.9289 42.2503 78.4479 41.713 78.1013 41.011C77.7633 40.309 77.5943 39.464 77.5943 38.476C77.5943 37.5053 77.7719 36.656 78.1273 35.928C78.4826 35.2 78.9679 34.6323 79.5833 34.225C80.2073 33.8177 80.9223 33.614 81.7283 33.614ZM81.6763 33.848C81.1129 33.848 80.6233 34.043 80.2073 34.433C79.7913 34.823 79.4663 35.3603 79.2323 36.045C79.0069 36.7297 78.8943 37.5227 78.8943 38.424C78.8943 39.3427 79.0199 40.1443 79.2713 40.829C79.5313 41.505 79.8779 42.0293 80.3113 42.402C80.7533 42.766 81.2386 42.948 81.7673 42.948C82.3306 42.948 82.8203 42.753 83.2363 42.363C83.6523 41.973 83.9729 41.4357 84.1983 40.751C84.4323 40.0577 84.5493 39.2647 84.5493 38.372C84.5493 37.4447 84.4193 36.643 84.1593 35.967C83.9079 35.291 83.5656 34.771 83.1323 34.407C82.6989 34.0343 82.2136 33.848 81.6763 33.848ZM93.4725 33.796C93.4378 34.0993 93.4118 34.394 93.3945 34.68C93.3858 34.966 93.3815 35.1827 93.3815 35.33C93.3815 35.486 93.3858 35.6377 93.3945 35.785C93.4031 35.9237 93.4118 36.0407 93.4205 36.136H93.1215C93.0695 35.6247 92.9958 35.2217 92.9005 34.927C92.8051 34.6237 92.6405 34.4113 92.4065 34.29C92.1811 34.16 91.8388 34.095 91.3795 34.095H90.3005C90.0058 34.095 89.7805 34.121 89.6245 34.173C89.4771 34.2163 89.3775 34.316 89.3255 34.472C89.2735 34.6193 89.2475 34.8533 89.2475 35.174V41.622C89.2475 41.934 89.2735 42.168 89.3255 42.324C89.3775 42.48 89.4771 42.584 89.6245 42.636C89.7805 42.6793 90.0058 42.701 90.3005 42.701H91.2495C91.7955 42.701 92.2071 42.6273 92.4845 42.48C92.7705 42.3327 92.9741 42.0943 93.0955 41.765C93.2255 41.427 93.3208 40.972 93.3815 40.4H93.6805C93.6545 40.634 93.6415 40.946 93.6415 41.336C93.6415 41.5007 93.6458 41.739 93.6545 42.051C93.6718 42.3543 93.6978 42.6707 93.7325 43C93.2905 42.9827 92.7921 42.974 92.2375 42.974C91.6828 42.9653 91.1888 42.961 90.7555 42.961C90.5648 42.961 90.3178 42.961 90.0145 42.961C89.7198 42.961 89.3991 42.9653 89.0525 42.974C88.7058 42.974 88.3548 42.9783 87.9995 42.987C87.6441 42.987 87.3061 42.9913 86.9855 43V42.74C87.2801 42.7227 87.5011 42.688 87.6485 42.636C87.8045 42.584 87.9085 42.48 87.9605 42.324C88.0125 42.168 88.0385 41.934 88.0385 41.622V35.174C88.0385 34.8533 88.0125 34.6193 87.9605 34.472C87.9085 34.316 87.8045 34.212 87.6485 34.16C87.5011 34.0993 87.2801 34.0647 86.9855 34.056V33.796C87.3061 33.8047 87.6441 33.8133 87.9995 33.822C88.3548 33.822 88.7058 33.8263 89.0525 33.835C89.3991 33.835 89.7198 33.835 90.0145 33.835C90.3178 33.835 90.5648 33.835 90.7555 33.835C91.1541 33.835 91.6048 33.835 92.1075 33.835C92.6188 33.8263 93.0738 33.8133 93.4725 33.796ZM91.2365 38.242C91.2365 38.242 91.2365 38.2853 91.2365 38.372C91.2365 38.4587 91.2365 38.502 91.2365 38.502H88.8575C88.8575 38.502 88.8575 38.4587 88.8575 38.372C88.8575 38.2853 88.8575 38.242 88.8575 38.242H91.2365ZM91.6135 36.526C91.5788 37.02 91.5615 37.397 91.5615 37.657C91.5701 37.917 91.5745 38.1553 91.5745 38.372C91.5745 38.5887 91.5788 38.827 91.5875 39.087C91.5961 39.347 91.6178 39.724 91.6525 40.218H91.3535C91.3188 39.9407 91.2755 39.672 91.2235 39.412C91.1801 39.1433 91.0761 38.9267 90.9115 38.762C90.7555 38.5887 90.4868 38.502 90.1055 38.502V38.242C90.3915 38.242 90.6081 38.1857 90.7555 38.073C90.9115 37.9517 91.0241 37.8 91.0935 37.618C91.1628 37.436 91.2105 37.2497 91.2365 37.059C91.2625 36.8597 91.2885 36.682 91.3145 36.526H91.6135Z" fill="white"/>
<path d="M309.823 33.614C310.646 33.614 311.366 33.8003 311.981 34.173C312.605 34.5457 313.086 35.083 313.424 35.785C313.771 36.4783 313.944 37.3233 313.944 38.32C313.944 39.2907 313.766 40.14 313.411 40.868C313.064 41.596 312.579 42.1637 311.955 42.571C311.331 42.9783 310.616 43.182 309.81 43.182C308.987 43.182 308.263 42.9957 307.639 42.623C307.024 42.2503 306.543 41.713 306.196 41.011C305.858 40.309 305.689 39.464 305.689 38.476C305.689 37.5053 305.867 36.656 306.222 35.928C306.577 35.2 307.063 34.6323 307.678 34.225C308.302 33.8177 309.017 33.614 309.823 33.614ZM309.771 33.848C309.208 33.848 308.718 34.043 308.302 34.433C307.886 34.823 307.561 35.3603 307.327 36.045C307.102 36.7297 306.989 37.5227 306.989 38.424C306.989 39.3427 307.115 40.1443 307.366 40.829C307.626 41.505 307.973 42.0293 308.406 42.402C308.848 42.766 309.333 42.948 309.862 42.948C310.425 42.948 310.915 42.753 311.331 42.363C311.747 41.973 312.068 41.4357 312.293 40.751C312.527 40.0577 312.644 39.2647 312.644 38.372C312.644 37.4447 312.514 36.643 312.254 35.967C312.003 35.291 311.66 34.771 311.227 34.407C310.794 34.0343 310.308 33.848 309.771 33.848ZM321.177 33.796C321.143 34.0993 321.117 34.394 321.099 34.68C321.091 34.966 321.086 35.1827 321.086 35.33C321.086 35.486 321.091 35.6377 321.099 35.785C321.108 35.9237 321.117 36.0407 321.125 36.136H320.826C320.774 35.6247 320.701 35.2217 320.605 34.927C320.51 34.6237 320.345 34.4113 320.111 34.29C319.886 34.16 319.544 34.095 319.084 34.095H318.395C318.101 34.095 317.875 34.121 317.719 34.173C317.572 34.2163 317.472 34.316 317.42 34.472C317.368 34.6193 317.342 34.8533 317.342 35.174V41.622C317.342 41.9253 317.36 42.1593 317.394 42.324C317.438 42.4887 317.52 42.6013 317.641 42.662C317.771 42.714 317.962 42.74 318.213 42.74C318.811 42.74 319.262 42.6317 319.565 42.415C319.877 42.1897 320.09 41.8907 320.202 41.518C320.315 41.1367 320.371 40.7207 320.371 40.27C320.371 39.698 320.298 39.23 320.15 38.866C320.012 38.4933 319.773 38.2203 319.435 38.047C319.106 37.865 318.66 37.774 318.096 37.774C318.001 37.774 317.845 37.7783 317.628 37.787C317.42 37.787 317.217 37.7913 317.017 37.8C316.818 37.8 316.679 37.8 316.601 37.8L316.575 37.553C316.983 37.553 317.373 37.5487 317.745 37.54C318.118 37.5313 318.382 37.527 318.538 37.527C319.058 37.527 319.513 37.5963 319.903 37.735C320.302 37.865 320.631 38.0513 320.891 38.294C321.151 38.5367 321.346 38.827 321.476 39.165C321.606 39.4943 321.671 39.8583 321.671 40.257C321.671 40.595 321.619 40.9287 321.515 41.258C321.411 41.5787 321.229 41.8733 320.969 42.142C320.718 42.402 320.371 42.61 319.929 42.766C319.487 42.922 318.928 43 318.252 43C318.027 43 317.802 42.9957 317.576 42.987C317.36 42.9697 317.039 42.961 316.614 42.961C316.372 42.961 316.099 42.9653 315.795 42.974C315.501 42.974 315.262 42.9827 315.08 43V42.74C315.375 42.7227 315.596 42.688 315.743 42.636C315.899 42.584 316.003 42.48 316.055 42.324C316.107 42.168 316.133 41.934 316.133 41.622V35.174C316.133 34.8533 316.107 34.6193 316.055 34.472C316.003 34.316 315.899 34.212 315.743 34.16C315.596 34.0993 315.375 34.0647 315.08 34.056V33.796C315.401 33.8047 315.739 33.8133 316.094 33.822C316.45 33.822 316.801 33.8263 317.147 33.835C317.494 33.835 317.815 33.835 318.109 33.835C318.413 33.835 318.66 33.835 318.85 33.835C319.188 33.835 319.574 33.835 320.007 33.835C320.441 33.8263 320.831 33.8133 321.177 33.796ZM328.349 33.796V34.056C327.985 34.0647 327.708 34.0993 327.517 34.16C327.327 34.212 327.197 34.316 327.127 34.472C327.067 34.6193 327.036 34.8533 327.036 35.174V41.622C327.036 41.934 327.058 42.1723 327.101 42.337C327.145 42.493 327.231 42.6013 327.361 42.662C327.491 42.714 327.686 42.74 327.946 42.74C328.527 42.74 328.969 42.6273 329.272 42.402C329.576 42.168 329.784 41.8647 329.896 41.492C330.009 41.1193 330.065 40.712 330.065 40.27C330.065 39.724 329.992 39.2647 329.844 38.892C329.706 38.5193 329.48 38.242 329.168 38.06C328.856 37.8693 328.436 37.774 327.907 37.774C327.725 37.774 327.526 37.7783 327.309 37.787C327.101 37.787 326.902 37.7913 326.711 37.8C326.529 37.8 326.391 37.8 326.295 37.8L326.269 37.553C326.677 37.553 327.067 37.5487 327.439 37.54C327.812 37.5313 328.076 37.527 328.232 37.527C328.752 37.527 329.207 37.592 329.597 37.722C329.996 37.852 330.325 38.034 330.585 38.268C330.845 38.4933 331.04 38.7663 331.17 39.087C331.3 39.399 331.365 39.7457 331.365 40.127C331.365 40.439 331.313 40.764 331.209 41.102C331.105 41.44 330.923 41.752 330.663 42.038C330.412 42.324 330.065 42.558 329.623 42.74C329.181 42.9133 328.622 43 327.946 43C327.747 43 327.522 42.9957 327.27 42.987C327.019 42.9697 326.742 42.961 326.438 42.961C326.1 42.961 325.784 42.9653 325.489 42.974C325.195 42.974 324.956 42.9827 324.774 43V42.74C325.069 42.7227 325.29 42.688 325.437 42.636C325.593 42.584 325.697 42.48 325.749 42.324C325.801 42.168 325.827 41.934 325.827 41.622V34.095H324.995C324.588 34.095 324.263 34.1383 324.02 34.225C323.778 34.3117 323.587 34.4503 323.448 34.641C323.318 34.823 323.219 35.07 323.149 35.382C323.089 35.694 323.037 36.0753 322.993 36.526H322.694C322.72 36.2487 322.733 35.8933 322.733 35.46C322.733 35.2953 322.725 35.0613 322.707 34.758C322.699 34.446 322.677 34.1253 322.642 33.796C323.206 33.8133 323.825 33.8263 324.501 33.835C325.186 33.835 325.832 33.835 326.438 33.835C326.672 33.835 326.906 33.835 327.14 33.835C327.374 33.8263 327.595 33.822 327.803 33.822C328.02 33.8133 328.202 33.8047 328.349 33.796ZM338.744 33.796C338.709 34.0993 338.683 34.394 338.666 34.68C338.657 34.966 338.653 35.1827 338.653 35.33C338.653 35.486 338.657 35.6377 338.666 35.785C338.675 35.9237 338.683 36.0407 338.692 36.136H338.393C338.341 35.6247 338.267 35.2217 338.172 34.927C338.077 34.6237 337.912 34.4113 337.678 34.29C337.453 34.16 337.11 34.095 336.651 34.095H335.572C335.277 34.095 335.052 34.121 334.896 34.173C334.749 34.2163 334.649 34.316 334.597 34.472C334.545 34.6193 334.519 34.8533 334.519 35.174V41.622C334.519 41.934 334.545 42.168 334.597 42.324C334.649 42.48 334.749 42.584 334.896 42.636C335.052 42.6793 335.277 42.701 335.572 42.701H336.521C337.067 42.701 337.479 42.6273 337.756 42.48C338.042 42.3327 338.246 42.0943 338.367 41.765C338.497 41.427 338.592 40.972 338.653 40.4H338.952C338.926 40.634 338.913 40.946 338.913 41.336C338.913 41.5007 338.917 41.739 338.926 42.051C338.943 42.3543 338.969 42.6707 339.004 43C338.562 42.9827 338.064 42.974 337.509 42.974C336.954 42.9653 336.46 42.961 336.027 42.961C335.836 42.961 335.589 42.961 335.286 42.961C334.991 42.961 334.671 42.9653 334.324 42.974C333.977 42.974 333.626 42.9783 333.271 42.987C332.916 42.987 332.578 42.9913 332.257 43V42.74C332.552 42.7227 332.773 42.688 332.92 42.636C333.076 42.584 333.18 42.48 333.232 42.324C333.284 42.168 333.31 41.934 333.31 41.622V35.174C333.31 34.8533 333.284 34.6193 333.232 34.472C333.18 34.316 333.076 34.212 332.92 34.16C332.773 34.0993 332.552 34.0647 332.257 34.056V33.796C332.578 33.8047 332.916 33.8133 333.271 33.822C333.626 33.822 333.977 33.8263 334.324 33.835C334.671 33.835 334.991 33.835 335.286 33.835C335.589 33.835 335.836 33.835 336.027 33.835C336.426 33.835 336.876 33.835 337.379 33.835C337.89 33.8263 338.345 33.8133 338.744 33.796ZM336.508 38.242C336.508 38.242 336.508 38.2853 336.508 38.372C336.508 38.4587 336.508 38.502 336.508 38.502H334.129C334.129 38.502 334.129 38.4587 334.129 38.372C334.129 38.2853 334.129 38.242 334.129 38.242H336.508ZM336.885 36.526C336.85 37.02 336.833 37.397 336.833 37.657C336.842 37.917 336.846 38.1553 336.846 38.372C336.846 38.5887 336.85 38.827 336.859 39.087C336.868 39.347 336.889 39.724 336.924 40.218H336.625C336.59 39.9407 336.547 39.672 336.495 39.412C336.452 39.1433 336.348 38.9267 336.183 38.762C336.027 38.5887 335.758 38.502 335.377 38.502V38.242C335.663 38.242 335.88 38.1857 336.027 38.073C336.183 37.9517 336.296 37.8 336.365 37.618C336.434 37.436 336.482 37.2497 336.508 37.059C336.534 36.8597 336.56 36.682 336.586 36.526H336.885ZM347.16 33.796V34.056C346.865 34.0647 346.64 34.0993 346.484 34.16C346.336 34.212 346.237 34.316 346.185 34.472C346.133 34.6193 346.107 34.8533 346.107 35.174V41.622C346.107 41.934 346.133 42.1723 346.185 42.337C346.237 42.493 346.336 42.6013 346.484 42.662C346.64 42.714 346.865 42.74 347.16 42.74H347.563C347.528 43.0433 347.502 43.338 347.485 43.624C347.476 43.91 347.472 44.1267 347.472 44.274C347.472 44.43 347.476 44.5773 347.485 44.716C347.493 44.8633 347.502 44.9847 347.511 45.08H347.212C347.16 44.5687 347.086 44.1613 346.991 43.858C346.895 43.5547 346.731 43.3337 346.497 43.195C346.271 43.065 345.929 43 345.47 43H341.765C341.305 43 340.959 43.065 340.725 43.195C340.499 43.3337 340.339 43.5547 340.244 43.858C340.157 44.1613 340.083 44.5687 340.023 45.08H339.724C339.741 44.9847 339.75 44.8633 339.75 44.716C339.758 44.5773 339.763 44.43 339.763 44.274C339.763 44.1267 339.754 43.91 339.737 43.624C339.728 43.338 339.706 43.0433 339.672 42.74H343.845C344.139 42.74 344.36 42.714 344.508 42.662C344.664 42.6013 344.768 42.493 344.82 42.337C344.872 42.1723 344.898 41.934 344.898 41.622V35.174C344.898 34.8533 344.872 34.615 344.82 34.459C344.768 34.303 344.664 34.199 344.508 34.147C344.36 34.0863 344.139 34.056 343.845 34.056H343.676C343.372 34.056 343.151 34.0863 343.013 34.147C342.874 34.199 342.783 34.3073 342.74 34.472C342.696 34.628 342.657 34.862 342.623 35.174C342.579 35.668 342.536 36.201 342.493 36.773C342.458 37.345 342.41 37.9257 342.35 38.515C342.289 39.0957 342.202 39.6547 342.09 40.192C341.986 40.7207 341.843 41.1973 341.661 41.622C341.479 42.038 341.245 42.3717 340.959 42.623C340.673 42.8657 340.322 42.987 339.906 42.987V42.74C340.304 42.74 340.638 42.5927 340.907 42.298C341.175 41.9947 341.392 41.5873 341.557 41.076C341.73 40.5647 341.864 39.984 341.96 39.334C342.055 38.6753 342.129 37.9907 342.181 37.28C342.233 36.5693 342.28 35.8673 342.324 35.174C342.341 34.8707 342.324 34.641 342.272 34.485C342.228 34.329 342.129 34.2207 341.973 34.16C341.817 34.0993 341.583 34.0647 341.271 34.056V33.796C341.453 33.8047 341.669 33.8133 341.921 33.822C342.172 33.8307 342.402 33.835 342.61 33.835C342.809 33.835 343 33.8307 343.182 33.822C343.372 33.8047 343.563 33.796 343.754 33.796C344.083 33.796 344.382 33.8047 344.651 33.822C344.919 33.8307 345.24 33.835 345.613 33.835C345.786 33.835 345.968 33.835 346.159 33.835C346.349 33.8263 346.531 33.822 346.705 33.822C346.887 33.8133 347.038 33.8047 347.16 33.796ZM351.67 33.796V34.056C351.375 34.0647 351.15 34.0993 350.994 34.16C350.846 34.212 350.747 34.316 350.695 34.472C350.643 34.6193 350.617 34.8533 350.617 35.174V41.622C350.617 41.934 350.643 42.168 350.695 42.324C350.747 42.48 350.846 42.584 350.994 42.636C351.15 42.688 351.375 42.7227 351.67 42.74V43C351.47 42.9827 351.219 42.974 350.916 42.974C350.621 42.9653 350.322 42.961 350.019 42.961C349.681 42.961 349.364 42.9653 349.07 42.974C348.775 42.974 348.537 42.9827 348.355 43V42.74C348.649 42.7227 348.87 42.688 349.018 42.636C349.174 42.584 349.278 42.48 349.33 42.324C349.382 42.168 349.408 41.934 349.408 41.622V35.174C349.408 34.8533 349.382 34.6193 349.33 34.472C349.278 34.316 349.174 34.212 349.018 34.16C348.87 34.0993 348.649 34.0647 348.355 34.056V33.796C348.537 33.8047 348.775 33.8133 349.07 33.822C349.364 33.8307 349.681 33.835 350.019 33.835C350.322 33.835 350.621 33.8307 350.916 33.822C351.219 33.8133 351.47 33.8047 351.67 33.796ZM355.323 34.654C355.323 34.654 355.318 34.7017 355.31 34.797C355.301 34.8837 355.292 34.9747 355.284 35.07C355.284 35.1653 355.284 35.213 355.284 35.213L350.084 42.584L350.123 42.025L355.323 34.654ZM357.364 33.796V34.056C357.069 34.0647 356.844 34.0993 356.688 34.16C356.54 34.212 356.441 34.316 356.389 34.472C356.337 34.6193 356.311 34.8533 356.311 35.174V41.622C356.311 41.934 356.337 42.168 356.389 42.324C356.441 42.48 356.54 42.584 356.688 42.636C356.844 42.688 357.069 42.7227 357.364 42.74V43C357.182 42.9827 356.943 42.974 356.649 42.974C356.354 42.9653 356.038 42.961 355.7 42.961C355.405 42.961 355.106 42.9653 354.803 42.974C354.499 42.974 354.248 42.9827 354.049 43V42.74C354.343 42.7227 354.564 42.688 354.712 42.636C354.868 42.584 354.972 42.48 355.024 42.324C355.076 42.168 355.102 41.934 355.102 41.622V35.174C355.102 34.8533 355.076 34.6193 355.024 34.472C354.972 34.316 354.868 34.212 354.712 34.16C354.564 34.0993 354.343 34.0647 354.049 34.056V33.796C354.248 33.8047 354.499 33.8133 354.803 33.822C355.106 33.8307 355.405 33.835 355.7 33.835C356.038 33.835 356.354 33.8307 356.649 33.822C356.943 33.8133 357.182 33.8047 357.364 33.796ZM363.894 43V42.74C364.189 42.7227 364.41 42.688 364.557 42.636C364.713 42.584 364.817 42.48 364.869 42.324C364.921 42.168 364.947 41.934 364.947 41.622V35.174C364.947 34.8533 364.921 34.6193 364.869 34.472C364.817 34.316 364.713 34.212 364.557 34.16C364.41 34.0993 364.189 34.0647 363.894 34.056V33.796C364.093 33.8047 364.345 33.8133 364.648 33.822C364.951 33.8307 365.25 33.835 365.545 33.835C365.883 33.835 366.199 33.8307 366.494 33.822C366.789 33.8133 367.027 33.8047 367.209 33.796V34.056C366.914 34.0647 366.689 34.0993 366.533 34.16C366.386 34.212 366.286 34.316 366.234 34.472C366.182 34.6193 366.156 34.8533 366.156 35.174V41.622C366.156 41.934 366.182 42.168 366.234 42.324C366.286 42.48 366.386 42.584 366.533 42.636C366.689 42.688 366.914 42.7227 367.209 42.74V43C367.027 42.9827 366.789 42.974 366.494 42.974C366.199 42.9653 365.883 42.961 365.545 42.961C365.25 42.961 364.951 42.9653 364.648 42.974C364.345 42.974 364.093 42.9827 363.894 43ZM358.46 43V42.74C358.755 42.7227 358.976 42.688 359.123 42.636C359.279 42.584 359.383 42.48 359.435 42.324C359.487 42.168 359.513 41.934 359.513 41.622V35.174C359.513 34.8533 359.487 34.6193 359.435 34.472C359.383 34.316 359.279 34.212 359.123 34.16C358.976 34.0993 358.755 34.0647 358.46 34.056V33.796C358.642 33.8047 358.88 33.8133 359.175 33.822C359.47 33.8307 359.786 33.835 360.124 33.835C360.427 33.835 360.726 33.8307 361.021 33.822C361.324 33.8133 361.576 33.8047 361.775 33.796V34.056C361.48 34.0647 361.255 34.0993 361.099 34.16C360.952 34.212 360.852 34.316 360.8 34.472C360.748 34.6193 360.722 34.8533 360.722 35.174V41.622C360.722 41.934 360.748 42.168 360.8 42.324C360.852 42.48 360.952 42.584 361.099 42.636C361.255 42.688 361.48 42.7227 361.775 42.74V43C361.576 42.9827 361.324 42.974 361.021 42.974C360.726 42.9653 360.427 42.961 360.124 42.961C359.786 42.961 359.47 42.9653 359.175 42.974C358.88 42.974 358.642 42.9827 358.46 43ZM360.267 38.502V38.242H365.402V38.502H360.267ZM374.786 33.796C374.751 34.0993 374.725 34.394 374.708 34.68C374.699 34.966 374.695 35.1827 374.695 35.33C374.695 35.486 374.699 35.6377 374.708 35.785C374.717 35.9237 374.725 36.0407 374.734 36.136H374.435C374.383 35.6247 374.309 35.2217 374.214 34.927C374.119 34.6237 373.954 34.4113 373.72 34.29C373.495 34.16 373.152 34.095 372.693 34.095H371.614C371.319 34.095 371.094 34.121 370.938 34.173C370.791 34.2163 370.691 34.316 370.639 34.472C370.587 34.6193 370.561 34.8533 370.561 35.174V41.622C370.561 41.934 370.587 42.168 370.639 42.324C370.691 42.48 370.791 42.584 370.938 42.636C371.094 42.6793 371.319 42.701 371.614 42.701H372.563C373.109 42.701 373.521 42.6273 373.798 42.48C374.084 42.3327 374.288 42.0943 374.409 41.765C374.539 41.427 374.634 40.972 374.695 40.4H374.994C374.968 40.634 374.955 40.946 374.955 41.336C374.955 41.5007 374.959 41.739 374.968 42.051C374.985 42.3543 375.011 42.6707 375.046 43C374.604 42.9827 374.106 42.974 373.551 42.974C372.996 42.9653 372.502 42.961 372.069 42.961C371.878 42.961 371.631 42.961 371.328 42.961C371.033 42.961 370.713 42.9653 370.366 42.974C370.019 42.974 369.668 42.9783 369.313 42.987C368.958 42.987 368.62 42.9913 368.299 43V42.74C368.594 42.7227 368.815 42.688 368.962 42.636C369.118 42.584 369.222 42.48 369.274 42.324C369.326 42.168 369.352 41.934 369.352 41.622V35.174C369.352 34.8533 369.326 34.6193 369.274 34.472C369.222 34.316 369.118 34.212 368.962 34.16C368.815 34.0993 368.594 34.0647 368.299 34.056V33.796C368.62 33.8047 368.958 33.8133 369.313 33.822C369.668 33.822 370.019 33.8263 370.366 33.835C370.713 33.835 371.033 33.835 371.328 33.835C371.631 33.835 371.878 33.835 372.069 33.835C372.468 33.835 372.918 33.835 373.421 33.835C373.932 33.8263 374.387 33.8133 374.786 33.796ZM372.55 38.242C372.55 38.242 372.55 38.2853 372.55 38.372C372.55 38.4587 372.55 38.502 372.55 38.502H370.171C370.171 38.502 370.171 38.4587 370.171 38.372C370.171 38.2853 370.171 38.242 370.171 38.242H372.55ZM372.927 36.526C372.892 37.02 372.875 37.397 372.875 37.657C372.884 37.917 372.888 38.1553 372.888 38.372C372.888 38.5887 372.892 38.827 372.901 39.087C372.91 39.347 372.931 39.724 372.966 40.218H372.667C372.632 39.9407 372.589 39.672 372.537 39.412C372.494 39.1433 372.39 38.9267 372.225 38.762C372.069 38.5887 371.8 38.502 371.419 38.502V38.242C371.705 38.242 371.922 38.1857 372.069 38.073C372.225 37.9517 372.338 37.8 372.407 37.618C372.476 37.436 372.524 37.2497 372.55 37.059C372.576 36.8597 372.602 36.682 372.628 36.526H372.927ZM381.655 43V42.74C381.949 42.7227 382.17 42.688 382.318 42.636C382.474 42.584 382.578 42.48 382.63 42.324C382.682 42.168 382.708 41.934 382.708 41.622V35.174C382.708 34.8533 382.682 34.6193 382.63 34.472C382.578 34.316 382.474 34.212 382.318 34.16C382.17 34.0993 381.949 34.0647 381.655 34.056V33.796C381.854 33.8047 382.105 33.8133 382.409 33.822C382.712 33.8307 383.011 33.835 383.306 33.835C383.644 33.835 383.96 33.8307 384.255 33.822C384.549 33.8133 384.788 33.8047 384.97 33.796V34.056C384.675 34.0647 384.45 34.0993 384.294 34.16C384.146 34.212 384.047 34.316 383.995 34.472C383.943 34.6193 383.917 34.8533 383.917 35.174V41.622C383.917 41.934 383.943 42.168 383.995 42.324C384.047 42.48 384.146 42.584 384.294 42.636C384.45 42.688 384.675 42.7227 384.97 42.74V43C384.788 42.9827 384.549 42.974 384.255 42.974C383.96 42.9653 383.644 42.961 383.306 42.961C383.011 42.961 382.712 42.9653 382.409 42.974C382.105 42.974 381.854 42.9827 381.655 43ZM376.221 43V42.74C376.515 42.7227 376.736 42.688 376.884 42.636C377.04 42.584 377.144 42.48 377.196 42.324C377.248 42.168 377.274 41.934 377.274 41.622V35.174C377.274 34.8533 377.248 34.6193 377.196 34.472C377.144 34.316 377.04 34.212 376.884 34.16C376.736 34.0993 376.515 34.0647 376.221 34.056V33.796C376.403 33.8047 376.641 33.8133 376.936 33.822C377.23 33.8307 377.547 33.835 377.885 33.835C378.188 33.835 378.487 33.8307 378.782 33.822C379.085 33.8133 379.336 33.8047 379.536 33.796V34.056C379.241 34.0647 379.016 34.0993 378.86 34.16C378.712 34.212 378.613 34.316 378.561 34.472C378.509 34.6193 378.483 34.8533 378.483 35.174V41.622C378.483 41.934 378.509 42.168 378.561 42.324C378.613 42.48 378.712 42.584 378.86 42.636C379.016 42.688 379.241 42.7227 379.536 42.74V43C379.336 42.9827 379.085 42.974 378.782 42.974C378.487 42.9653 378.188 42.961 377.885 42.961C377.547 42.961 377.23 42.9653 376.936 42.974C376.641 42.974 376.403 42.9827 376.221 43ZM378.028 38.502V38.242H383.163V38.502H378.028ZM389.375 33.796V34.056C389.08 34.0647 388.855 34.0993 388.699 34.16C388.551 34.212 388.452 34.316 388.4 34.472C388.348 34.6193 388.322 34.8533 388.322 35.174V41.622C388.322 41.934 388.348 42.168 388.4 42.324C388.452 42.48 388.551 42.584 388.699 42.636C388.855 42.688 389.08 42.7227 389.375 42.74V43C389.175 42.9827 388.924 42.974 388.621 42.974C388.326 42.9653 388.027 42.961 387.724 42.961C387.386 42.961 387.069 42.9653 386.775 42.974C386.48 42.974 386.242 42.9827 386.06 43V42.74C386.354 42.7227 386.575 42.688 386.723 42.636C386.879 42.584 386.983 42.48 387.035 42.324C387.087 42.168 387.113 41.934 387.113 41.622V35.174C387.113 34.8533 387.087 34.6193 387.035 34.472C386.983 34.316 386.879 34.212 386.723 34.16C386.575 34.0993 386.354 34.0647 386.06 34.056V33.796C386.242 33.8047 386.48 33.8133 386.775 33.822C387.069 33.8307 387.386 33.835 387.724 33.835C388.027 33.835 388.326 33.8307 388.621 33.822C388.924 33.8133 389.175 33.8047 389.375 33.796ZM393.028 34.654C393.028 34.654 393.023 34.7017 393.015 34.797C393.006 34.8837 392.997 34.9747 392.989 35.07C392.989 35.1653 392.989 35.213 392.989 35.213L387.789 42.584L387.828 42.025L393.028 34.654ZM395.069 33.796V34.056C394.774 34.0647 394.549 34.0993 394.393 34.16C394.245 34.212 394.146 34.316 394.094 34.472C394.042 34.6193 394.016 34.8533 394.016 35.174V41.622C394.016 41.934 394.042 42.168 394.094 42.324C394.146 42.48 394.245 42.584 394.393 42.636C394.549 42.688 394.774 42.7227 395.069 42.74V43C394.887 42.9827 394.648 42.974 394.354 42.974C394.059 42.9653 393.743 42.961 393.405 42.961C393.11 42.961 392.811 42.9653 392.508 42.974C392.204 42.974 391.953 42.9827 391.754 43V42.74C392.048 42.7227 392.269 42.688 392.417 42.636C392.573 42.584 392.677 42.48 392.729 42.324C392.781 42.168 392.807 41.934 392.807 41.622V35.174C392.807 34.8533 392.781 34.6193 392.729 34.472C392.677 34.316 392.573 34.212 392.417 34.16C392.269 34.0993 392.048 34.0647 391.754 34.056V33.796C391.953 33.8047 392.204 33.8133 392.508 33.822C392.811 33.8307 393.11 33.835 393.405 33.835C393.743 33.835 394.059 33.8307 394.354 33.822C394.648 33.8133 394.887 33.8047 395.069 33.796ZM402.652 33.796C402.617 34.0993 402.591 34.394 402.574 34.68C402.565 34.966 402.561 35.1827 402.561 35.33C402.561 35.486 402.565 35.6377 402.574 35.785C402.583 35.9237 402.591 36.0407 402.6 36.136H402.301C402.249 35.6247 402.175 35.2217 402.08 34.927C401.985 34.6237 401.82 34.4113 401.586 34.29C401.361 34.16 401.018 34.095 400.559 34.095H399.48C399.185 34.095 398.96 34.121 398.804 34.173C398.657 34.2163 398.557 34.316 398.505 34.472C398.453 34.6193 398.427 34.8533 398.427 35.174V41.622C398.427 41.934 398.453 42.168 398.505 42.324C398.557 42.48 398.657 42.584 398.804 42.636C398.96 42.6793 399.185 42.701 399.48 42.701H400.429C400.975 42.701 401.387 42.6273 401.664 42.48C401.95 42.3327 402.154 42.0943 402.275 41.765C402.405 41.427 402.5 40.972 402.561 40.4H402.86C402.834 40.634 402.821 40.946 402.821 41.336C402.821 41.5007 402.825 41.739 402.834 42.051C402.851 42.3543 402.877 42.6707 402.912 43C402.47 42.9827 401.972 42.974 401.417 42.974C400.862 42.9653 400.368 42.961 399.935 42.961C399.744 42.961 399.497 42.961 399.194 42.961C398.899 42.961 398.579 42.9653 398.232 42.974C397.885 42.974 397.534 42.9783 397.179 42.987C396.824 42.987 396.486 42.9913 396.165 43V42.74C396.46 42.7227 396.681 42.688 396.828 42.636C396.984 42.584 397.088 42.48 397.14 42.324C397.192 42.168 397.218 41.934 397.218 41.622V35.174C397.218 34.8533 397.192 34.6193 397.14 34.472C397.088 34.316 396.984 34.212 396.828 34.16C396.681 34.0993 396.46 34.0647 396.165 34.056V33.796C396.486 33.8047 396.824 33.8133 397.179 33.822C397.534 33.822 397.885 33.8263 398.232 33.835C398.579 33.835 398.899 33.835 399.194 33.835C399.497 33.835 399.744 33.835 399.935 33.835C400.334 33.835 400.784 33.835 401.287 33.835C401.798 33.8263 402.253 33.8133 402.652 33.796ZM400.416 38.242C400.416 38.242 400.416 38.2853 400.416 38.372C400.416 38.4587 400.416 38.502 400.416 38.502H398.037C398.037 38.502 398.037 38.4587 398.037 38.372C398.037 38.2853 398.037 38.242 398.037 38.242H400.416ZM400.793 36.526C400.758 37.02 400.741 37.397 400.741 37.657C400.75 37.917 400.754 38.1553 400.754 38.372C400.754 38.5887 400.758 38.827 400.767 39.087C400.776 39.347 400.797 39.724 400.832 40.218H400.533C400.498 39.9407 400.455 39.672 400.403 39.412C400.36 39.1433 400.256 38.9267 400.091 38.762C399.935 38.5887 399.666 38.502 399.285 38.502V38.242C399.571 38.242 399.788 38.1857 399.935 38.073C400.091 37.9517 400.204 37.8 400.273 37.618C400.342 37.436 400.39 37.2497 400.416 37.059C400.442 36.8597 400.468 36.682 400.494 36.526H400.793Z" fill="white"/>
</svg>
